<?xml version="1.0" standalone="no"?>
<!DOCTYPE svg PUBLIC "-//W3C//DTD SVG 20010904//EN"
 "http://www.w3.org/TR/2001/REC-SVG-20010904/DTD/svg10.dtd">
<svg version="1.0" xmlns="http://www.w3.org/2000/svg"
 width="1000.000000pt" height="948.000000pt" viewBox="0 0 1000.000000 948.000000"
 preserveAspectRatio="xMidYMid meet">

<g transform="translate(0.000000,948.000000) scale(0.100000,-0.100000)"
fill="#000000" stroke="none">
<path d="M4720 9029 c-316 -49 -557 -135 -820 -292 -617 -369 -1020 -1072
-1020 -1782 l0 -132 -111 -48 c-118 -52 -257 -130 -335 -189 -87 -66 -163
-145 -166 -173 -3 -26 -10 -22 -208 112 -362 246 -621 421 -767 519 -133 90
-145 96 -192 96 -118 0 -341 -86 -506 -196 -66 -44 -268 -245 -315 -314 -153
-226 -263 -550 -277 -815 -6 -126 10 -217 53 -296 45 -81 33 -73 609 -429 83
-51 188 -116 235 -145 47 -29 191 -118 320 -198 129 -80 269 -167 310 -194
l75 -48 -732 -3 c-612 -2 -733 -4 -733 -16 0 -14 28 -41 185 -176 54 -47 131
-114 171 -150 39 -36 118 -105 175 -155 56 -49 128 -113 158 -140 31 -28 91
-81 134 -119 l77 -68 0 -192 c0 -422 65 -655 229 -816 102 -101 219 -161 388
-197 113 -24 135 -26 546 -30 l427 -5 0 -28 c0 -26 -15 -38 -177 -138 -98 -61
-203 -126 -233 -145 -30 -19 -122 -76 -205 -127 -82 -51 -220 -135 -305 -188
-111 -69 -170 -100 -210 -108 -30 -7 -95 -21 -145 -32 -112 -24 -157 -43 -211
-87 -64 -53 -84 -103 -84 -213 0 -110 9 -135 103 -292 81 -136 176 -238 251
-272 68 -29 154 -29 217 1 50 24 143 116 245 241 53 65 78 85 190 153 188 114
251 153 539 333 426 265 495 305 505 299 6 -4 37 -46 69 -93 73 -107 148 -208
223 -298 60 -74 292 -311 398 -408 87 -80 262 -210 390 -291 215 -135 564
-296 745 -345 l78 -21 66 22 c315 103 678 292 946 493 132 99 193 154 383 346
186 188 326 361 447 552 17 27 34 48 38 48 9 0 153 -87 382 -230 77 -48 205
-128 285 -177 80 -49 168 -103 195 -120 28 -17 108 -67 179 -110 112 -68 137
-88 190 -153 102 -125 195 -217 245 -241 63 -30 149 -30 217 -1 75 34 170 136
251 272 94 157 103 182 103 292 0 110 -20 160 -84 213 -54 44 -99 63 -211 87
-49 11 -115 25 -145 32 -41 8 -100 39 -215 111 -88 55 -216 134 -285 176 -683
422 -680 420 -680 445 l0 24 675 0 675 0 0 535 0 535 56 0 56 0 110 98 c61 53
141 124 178 157 36 33 138 122 227 197 88 75 192 165 230 200 38 35 112 99
163 143 159 136 170 147 170 161 0 12 -118 14 -732 16 l-733 3 105 67 c131 83
178 113 365 228 83 50 188 116 235 145 47 29 153 94 235 145 393 243 493 306
533 338 94 75 139 212 129 391 -15 264 -125 588 -277 811 -48 71 -249 271
-320 318 -152 101 -388 192 -497 192 -52 0 -60 -4 -196 -96 -146 -98 -405
-273 -767 -519 -198 -134 -205 -138 -208 -112 -3 28 -79 107 -166 173 -78 59
-217 137 -335 189 l-111 48 0 136 c0 462 -186 964 -492 1326 -342 404 -805
661 -1337 741 -104 16 -478 18 -571 3z m1260 -904 c0 -9 -20 -38 -45 -64 -48
-52 -65 -91 -65 -154 0 -51 -21 -88 -68 -121 -43 -30 -53 -48 -74 -140 -12
-57 -16 -62 -77 -105 -60 -43 -65 -50 -86 -114 -25 -79 -27 -82 -102 -121 -52
-28 -62 -38 -93 -101 -36 -72 -39 -74 -145 -122 -29 -13 -47 -31 -65 -65 -44
-81 -55 -88 -165 -117 -32 -9 -48 -22 -78 -66 -44 -64 -73 -81 -148 -91 -48
-6 -59 -12 -104 -59 -62 -65 -76 -72 -158 -81 -59 -6 -70 -11 -107 -46 -53
-52 -95 -68 -174 -68 -58 0 -69 -3 -98 -29 -62 -54 -94 -64 -176 -57 -70 6
-76 4 -116 -23 -67 -46 -110 -55 -185 -38 -63 15 -63 15 -118 -14 -65 -34
-134 -38 -202 -10 -43 17 -45 20 -68 96 -13 44 -23 83 -23 87 0 16 99 7 147
-13 l50 -21 51 26 c58 29 113 33 182 12 44 -13 47 -12 108 20 68 36 117 43
182 24 32 -9 40 -7 85 24 72 50 101 59 171 51 61 -6 61 -6 109 35 60 52 81 60
156 60 58 0 62 2 112 49 66 61 78 67 155 76 60 7 64 9 98 53 46 60 76 79 147
93 42 9 63 18 75 36 71 102 77 107 147 133 68 25 71 27 105 90 32 60 41 68
105 100 67 33 71 38 95 95 34 82 37 85 105 131 58 38 60 41 76 105 20 82 19
81 84 129 58 43 60 47 70 134 6 54 11 64 61 116 30 31 54 62 54 68 0 7 2 12 5
12 3 0 5 -7 5 -15z m91 -224 c-81 -99 -81 -100 -81 -174 l0 -70 -59 -58 c-52
-50 -60 -63 -66 -106 -12 -89 -24 -110 -83 -156 -45 -34 -60 -52 -71 -87 -26
-89 -44 -113 -106 -151 -61 -36 -69 -47 -104 -132 -19 -44 -26 -51 -94 -82
-67 -31 -75 -38 -97 -85 -30 -65 -66 -95 -136 -116 -58 -17 -76 -30 -99 -73
-24 -47 -79 -88 -127 -96 -68 -10 -91 -23 -122 -66 -39 -56 -77 -76 -155 -85
-61 -6 -69 -10 -106 -50 -49 -54 -97 -74 -172 -74 -54 0 -62 -3 -113 -45 -61
-50 -97 -61 -171 -51 -47 6 -54 4 -112 -35 l-62 -41 -92 6 c-87 5 -93 4 -145
-24 -61 -34 -113 -38 -179 -15 -24 9 -56 13 -71 10 -26 -6 -29 -2 -68 74 l-40
81 27 12 c54 21 125 21 181 0 l53 -21 62 30 c69 32 94 35 178 17 51 -10 60
-10 76 5 11 9 40 26 67 38 41 18 59 20 116 14 l68 -7 62 43 c59 42 63 44 139
44 78 0 78 0 125 43 56 52 81 62 153 62 53 0 56 1 107 55 55 56 88 75 135 75
52 0 85 19 115 66 34 54 73 80 130 89 57 10 80 27 112 85 31 56 54 75 128 99
47 16 53 21 81 78 40 80 50 91 111 118 55 24 78 50 90 100 13 56 35 86 89 121
63 40 68 48 85 128 11 54 18 66 76 121 63 60 64 62 64 114 0 65 18 104 70 155
22 21 41 48 41 60 1 19 2 19 6 2 3 -10 -4 -30 -16 -45z m285 -396 c-4 -18 -14
-39 -23 -46 -9 -8 -29 -32 -45 -53 -24 -33 -28 -49 -28 -103 0 -77 -9 -95 -67
-148 -42 -38 -45 -45 -58 -120 -12 -70 -18 -83 -47 -108 -92 -77 -95 -81 -107
-137 -16 -73 -31 -94 -95 -131 -65 -36 -69 -40 -90 -105 -20 -62 -43 -85 -119
-118 -51 -23 -60 -32 -83 -81 -33 -68 -69 -100 -140 -121 -48 -14 -58 -22 -88
-68 -45 -70 -74 -91 -146 -105 -55 -11 -64 -16 -98 -60 -48 -63 -78 -81 -159
-92 -60 -9 -69 -13 -104 -53 -50 -57 -92 -76 -168 -76 -57 0 -64 -3 -104 -39
-60 -55 -77 -61 -165 -61 -76 0 -81 -1 -127 -37 l-48 -38 -101 0 c-90 -1 -106
-3 -146 -27 -104 -60 -162 -47 -272 60 -43 41 -78 79 -78 83 0 13 62 29 111
29 27 0 67 -7 89 -16 40 -16 42 -16 109 15 75 34 90 36 170 20 55 -11 57 -11
116 26 59 36 62 37 139 32 78 -5 80 -5 120 27 63 51 84 59 161 58 71 -1 72 -1
111 39 52 54 76 66 158 74 59 7 72 12 95 38 49 57 63 69 97 83 18 8 50 14 70
14 30 0 43 7 68 36 81 94 91 102 161 123 68 20 71 22 99 76 32 62 61 87 123
105 48 15 74 40 93 90 23 59 47 86 103 113 63 30 72 39 87 97 18 68 36 96 77
121 21 12 48 31 60 42 21 19 25 29 38 112 5 32 18 51 67 97 l61 57 6 74 c7 77
10 83 73 154 27 30 38 52 39 75 0 18 3 27 6 20 3 -7 2 -28 -1 -47z m120 -190
c-3 -12 -24 -44 -46 -71 -39 -47 -40 -51 -40 -124 0 -64 -4 -81 -25 -113 -14
-20 -30 -37 -35 -37 -23 0 -53 -65 -60 -133 l-8 -71 -65 -60 c-58 -55 -65 -66
-72 -111 -10 -69 -28 -96 -96 -138 -53 -33 -60 -42 -74 -91 -21 -73 -45 -101
-117 -137 -55 -28 -62 -35 -88 -94 -31 -70 -47 -83 -133 -115 -50 -19 -60 -27
-81 -68 -34 -67 -65 -92 -142 -113 -37 -10 -68 -20 -69 -21 -74 -111 -93 -126
-178 -139 -56 -9 -66 -14 -109 -59 -55 -59 -99 -80 -168 -80 -44 0 -55 -5 -93
-38 -74 -67 -85 -72 -167 -72 -68 0 -79 -3 -110 -29 -67 -55 -97 -64 -179 -58
-65 5 -80 3 -108 -14 l-33 -21 -57 33 c-32 18 -92 55 -133 83 -75 51 -75 51
-42 54 18 2 55 -4 83 -13 49 -16 50 -16 92 8 67 40 113 48 182 35 l61 -11 53
36 c61 42 101 52 174 43 47 -6 55 -4 73 15 10 12 39 35 63 51 38 24 55 28 112
28 l67 0 55 54 c56 56 60 57 168 71 42 5 51 11 85 58 39 52 72 69 176 91 19 4
40 24 66 64 43 62 58 73 142 100 51 16 57 21 82 71 37 73 49 84 122 115 52 22
66 33 76 59 32 89 50 113 115 150 57 33 65 42 75 80 25 96 32 109 78 140 72
50 80 61 87 124 10 76 17 89 78 144 l50 46 6 79 c7 87 15 105 60 149 21 19 34
43 38 70 4 22 9 32 11 22 2 -10 1 -29 -2 -42z m-4803 -1000 l623 -416 3 -52
c1 -29 11 -193 21 -366 11 -173 20 -319 20 -324 0 -8 -124 55 -555 281 -110
57 -242 127 -294 154 -51 27 -95 47 -97 46 -1 -2 140 -109 314 -238 174 -129
392 -290 483 -358 l166 -123 7 -137 c3 -75 9 -168 12 -207 l6 -70 -138 2 -139
1 -205 127 c-113 70 -331 205 -485 300 -1105 682 -1099 678 -1119 719 -48 98
-25 268 58 439 111 226 240 379 423 500 94 63 233 136 261 137 6 0 292 -187
635 -415z m7375 380 c195 -90 385 -251 492 -416 133 -207 196 -379 188 -514
-8 -128 -10 -129 -288 -301 -135 -83 -537 -333 -895 -554 l-650 -403 -139 -5
-139 -4 6 78 c4 44 10 139 13 211 l7 133 483 357 c266 197 482 359 480 360 -2
2 -54 -23 -117 -56 -63 -33 -274 -143 -469 -245 -195 -102 -356 -184 -357
-182 -3 2 22 449 40 709 l2 37 620 414 c341 228 626 415 633 415 7 1 48 -15
90 -34z m-483 16 c-6 -5 -197 -145 -425 -311 l-415 -301 -3 42 c-2 27 1 45 10
50 7 5 198 125 423 268 226 142 412 260 415 260 2 1 0 -3 -5 -8z m-6651 -296
l366 -230 0 -43 c0 -32 -3 -41 -12 -36 -28 17 -784 568 -798 581 -18 18 -27
23 444 -272z m1036 -67 c31 -113 103 -295 156 -399 l44 -85 0 -682 0 -682
-189 0 -190 0 -5 53 c-6 52 -106 1668 -106 1710 0 18 17 33 78 69 76 46 172
97 183 98 3 0 16 -37 29 -82z m4193 51 c104 -52 197 -113 197 -129 1 -34 -101
-1688 -106 -1727 l-5 -43 -190 0 -189 0 0 683 0 682 60 120 c33 67 83 192 112
282 29 90 54 163 56 163 1 0 31 -14 65 -31z m-3073 -1386 c155 -77 295 -128
453 -164 l97 -23 0 -163 0 -163 -352 2 -353 3 -3 293 c-1 162 1 292 5 290 5
-2 73 -36 153 -75z m2015 -500 c-3 -10 -82 -13 -355 -13 l-350 0 0 163 0 162
128 31 c164 41 307 94 457 170 l120 60 3 -280 c1 -154 0 -286 -3 -293z m-3702
-330 c2 -5 2 -81 -1 -170 l-4 -163 -157 0 c-385 -1 -421 -34 -424 -387 -1
-176 12 -247 59 -303 48 -56 77 -63 312 -68 l212 -4 0 -165 0 -165 -307 4
c-271 5 -317 8 -383 26 -170 46 -255 127 -294 278 -46 179 -58 591 -21 724 3
10 -73 78 -225 200 -126 102 -229 188 -229 193 -1 4 327 7 728 7 402 0 732 -3
734 -7z m919 -16 c145 -34 217 -88 260 -197 20 -49 23 -73 23 -215 0 -144 -3
-166 -23 -217 -13 -33 -45 -81 -72 -111 l-49 -54 60 -203 c32 -112 59 -205 59
-207 0 -2 -83 -3 -184 -3 -182 0 -184 0 -189 23 -8 31 -67 307 -67 312 0 3
-43 5 -95 5 l-95 0 0 -169 0 -169 -185 -2 -185 -1 0 617 0 616 338 -5 c252 -4
354 -9 404 -20z m828 -592 l0 -615 -185 0 -185 0 0 615 0 615 185 0 185 0 0
-615z m1043 608 c2 -5 2 -70 -1 -145 l-4 -138 -167 0 c-181 0 -225 -8 -271
-46 -47 -40 -60 -102 -60 -289 0 -171 7 -208 47 -262 37 -50 96 -63 290 -63
l163 0 0 -140 0 -140 -256 5 c-289 6 -360 17 -445 68 -131 79 -173 217 -173
567 0 416 91 546 402 579 99 11 470 13 475 4z m557 -223 l0 -230 74 0 73 0 31
98 c17 53 49 157 72 230 l41 132 180 0 c137 0 179 -3 179 -12 0 -7 -42 -142
-94 -299 l-93 -287 103 -313 c57 -173 104 -315 104 -317 0 -2 -82 -2 -182 0
l-183 3 -76 215 -77 215 -76 3 -76 3 0 -221 0 -220 -185 0 -185 0 0 615 0 615
185 0 185 0 0 -230z m1710 85 l0 -145 -265 0 -265 0 0 -90 0 -90 205 0 205 0
0 -140 0 -140 -205 0 -205 0 0 -100 0 -100 265 0 265 0 0 -140 0 -140 -447 2
-448 3 -3 613 -2 612 450 0 450 0 0 -145z m1639 138 c0 -5 -93 -83 -206 -175
l-205 -168 -153 0 -152 0 -6 -272 c-4 -149 -7 -388 -7 -530 l0 -258 -215 0
-215 0 0 530 0 530 -155 0 -155 0 0 175 0 175 735 0 c404 0 735 -3 734 -7z
m-5761 -1534 l32 -11 -20 -29 c-18 -24 -24 -27 -46 -19 -62 24 -168 -8 -179
-53 -16 -62 45 -102 145 -95 60 5 67 3 83 -18 17 -22 17 -24 -5 -35 -32 -17
-166 -17 -208 0 -95 38 -138 107 -106 169 18 35 67 74 111 90 40 14 154 15
193 1z m152 -44 l0 -55 65 0 65 0 0 55 0 55 45 0 45 0 0 -140 0 -140 -45 0
-45 0 0 55 0 55 -65 0 -65 0 0 -55 0 -55 -45 0 -45 0 0 133 c0 74 3 137 7 140
3 4 24 7 45 7 l38 0 0 -55z m515 -5 c99 -172 117 -201 121 -197 2 2 11 57 20
122 8 66 17 123 20 127 3 4 25 8 49 8 l44 0 44 -81 45 -81 44 78 44 79 49 0
49 0 18 -130 c9 -71 17 -134 17 -138 1 -4 -20 -7 -46 -5 l-48 3 -7 74 c-4 41
-9 76 -11 77 -2 2 -21 -32 -42 -76 -35 -72 -42 -80 -67 -80 -25 0 -32 8 -65
75 -21 41 -41 75 -45 75 -4 0 -8 -20 -8 -44 0 -24 -3 -58 -6 -75 l-6 -31 -93
0 c-88 0 -92 1 -103 25 -11 24 -16 25 -90 25 -74 0 -79 -1 -90 -25 -10 -22
-18 -25 -61 -25 l-50 0 81 141 80 140 41 -3 c38 -3 43 -7 72 -58z m814 47 c49
-17 76 -57 64 -93 -15 -44 -55 -67 -123 -72 l-60 -4 0 -49 0 -49 -45 0 -45 0
0 140 0 140 88 -1 c48 0 102 -5 121 -12z m201 -127 l0 -140 -50 0 -50 0 0 140
0 140 50 0 50 0 0 -140z m354 114 c56 -29 81 -66 81 -119 0 -116 -183 -183
-316 -115 -113 58 -105 185 16 242 54 25 164 21 219 -8z m293 -61 l82 -88 1
88 0 88 43 -3 42 -3 3 -137 3 -138 -48 0 c-47 0 -49 1 -125 82 l-77 83 -1 -82
0 -83 -45 0 -45 0 0 140 0 140 43 0 c40 0 46 -4 124 -87z m462 76 c34 -12 36
-16 18 -40 -9 -12 -28 -16 -77 -15 -86 1 -87 -18 -2 -49 68 -25 112 -58 112
-85 0 -77 -151 -113 -269 -64 l-35 15 25 24 c24 24 24 24 71 8 35 -13 54 -15
75 -7 44 15 34 37 -27 59 -62 23 -79 32 -99 57 -19 26 2 72 42 92 37 18 120
21 166 5z m181 -44 l0 -55 65 0 65 0 0 55 0 55 45 0 45 0 0 -140 0 -140 -45 0
-45 0 0 55 0 55 -65 0 -65 0 0 -55 0 -55 -45 0 -45 0 0 140 0 140 45 0 45 0 0
-55z m370 -85 l0 -140 -45 0 -45 0 0 140 0 140 45 0 45 0 0 -140z m269 127
c48 -17 78 -59 65 -93 -15 -43 -56 -67 -124 -72 l-60 -4 0 -49 0 -49 -45 0
-45 0 0 140 0 140 88 -1 c48 0 102 -5 121 -12z m-2309 -1117 c0 -324 -2 -590
-5 -590 -2 0 -48 25 -102 56 -192 111 -349 226 -515 377 l-88 79 0 334 0 334
355 0 355 0 0 -590z m1470 256 l0 -333 -87 -79 c-162 -148 -327 -269 -516
-378 -54 -31 -100 -56 -102 -56 -3 0 -5 266 -5 590 l0 590 355 0 355 0 0 -334z
m-4444 -426 c30 -47 54 -90 54 -95 0 -14 -147 -197 -166 -208 -27 -15 -60 19
-131 135 -81 132 -100 176 -81 194 14 14 222 64 252 61 12 -1 38 -33 72 -87z
m6901 64 c65 -14 124 -31 131 -38 18 -18 -6 -73 -89 -208 -57 -92 -89 -128
-114 -128 -10 0 -137 151 -165 196 -11 19 -10 27 10 60 63 103 91 144 100 144
4 0 62 -11 127 -26z"/>
<path d="M2938 3904 c-5 -4 -8 -79 -8 -166 l0 -158 95 0 c111 0 144 12 169 64
23 49 21 152 -4 193 -32 53 -63 67 -159 71 -47 2 -89 1 -93 -4z"/>
<path d="M3891 2532 l-21 -42 40 0 c45 0 46 2 21 49 l-19 35 -21 -42z"/>
<path d="M4680 2571 c0 -34 3 -41 19 -41 37 0 71 19 71 39 0 24 -5 27 -53 36
l-37 7 0 -41z"/>
<path d="M5190 2593 c-54 -20 -69 -92 -27 -130 61 -56 177 -20 177 55 0 13
-13 37 -29 53 -23 22 -38 29 -68 28 -21 0 -45 -3 -53 -6z"/>
<path d="M6810 2571 c0 -34 3 -41 19 -41 37 0 71 19 71 39 0 24 -5 27 -53 36
l-37 7 0 -41z"/>
</g>
</svg>
