<?xml version="1.0" standalone="no"?>
<!DOCTYPE svg PUBLIC "-//W3C//DTD SVG 20010904//EN"
 "http://www.w3.org/TR/2001/REC-SVG-20010904/DTD/svg10.dtd">
<svg version="1.0" xmlns="http://www.w3.org/2000/svg"
 width="28.000000pt" height="27.000000pt" viewBox="0 0 28.000000 27.000000"
 preserveAspectRatio="xMidYMid meet">

<g transform="translate(0.000000,27.000000) scale(0.100000,-0.100000)"
fill="#000000" stroke="none">
<path d="M117 249 c-9 -5 -24 -23 -32 -40 -14 -26 -18 -28 -37 -18 -16 9 -24
8 -37 -5 -15 -16 -14 -19 14 -44 17 -15 31 -36 32 -47 1 -20 1 -20 -13 -1 -8
11 -14 23 -14 28 0 4 -4 8 -9 8 -5 0 -3 -14 5 -30 9 -17 23 -30 32 -30 14 0
12 -4 -6 -18 -13 -10 -20 -21 -16 -25 4 -4 15 0 25 9 16 14 20 14 48 -7 l31
-23 31 23 c28 21 32 21 48 7 10 -9 21 -13 25 -9 4 4 -3 15 -16 25 -19 15 -20
18 -5 18 9 0 17 6 17 14 0 7 7 19 15 26 9 7 13 15 10 18 -2 3 -13 -6 -24 -19
-13 -15 -20 -19 -21 -10 0 7 15 26 33 42 30 27 31 29 15 45 -15 15 -19 15 -34
3 -15 -12 -18 -11 -28 5 -15 26 -53 66 -63 66 -4 0 -16 -5 -26 -11z m13 -63
c-14 -8 -29 -11 -35 -8 -5 3 1 9 15 13 40 11 47 9 20 -5z m-80 -11 c6 -8 10
-21 8 -29 -3 -13 -7 -12 -27 3 -13 10 -21 23 -17 30 10 15 21 14 36 -4z m101
-5 c-13 -11 -28 -20 -34 -20 -13 0 -4 9 25 26 33 18 36 16 9 -6z m116 3 c2 -5
-8 -18 -22 -27 -24 -16 -25 -15 -25 2 0 33 38 54 47 25z m-180 -35 c-3 -7 -5
-2 -5 12 0 14 2 19 5 13 2 -7 2 -19 0 -25z m110 0 c-3 -7 -5 -2 -5 12 0 14 2
19 5 13 2 -7 2 -19 0 -25z m-70 -4 c-3 -3 -12 -4 -19 -1 -8 3 -5 6 6 6 11 1
17 -2 13 -5z m50 0 c-3 -3 -12 -4 -19 -1 -8 3 -5 6 6 6 11 1 17 -2 13 -5z
m-44 -30 c-5 -15 -63 -14 -63 1 0 8 13 12 34 11 19 -1 32 -6 29 -12z m67 0 c0
-8 -4 -12 -10 -9 -5 3 -10 10 -10 16 0 5 5 9 10 9 6 0 10 -7 10 -16z m-30 -4
c0 -5 -4 -10 -10 -10 -5 0 -10 5 -10 10 0 6 5 10 10 10 6 0 10 -4 10 -10z
m-37 -52 c4 -10 8 -9 16 2 5 8 13 11 17 7 11 -11 -11 -29 -32 -25 -19 3 -32
28 -16 28 6 0 13 -6 15 -12z"/>
</g>
</svg>
